<?xml version="1.0" standalone="no"?>
<!DOCTYPE svg PUBLIC "-//W3C//DTD SVG 20010904//EN"
 "http://www.w3.org/TR/2001/REC-SVG-20010904/DTD/svg10.dtd">
<svg version="1.0" xmlns="http://www.w3.org/2000/svg"
 width="1131.000000pt" height="252.000000pt" viewBox="0 0 1131.000000 252.000000"
 preserveAspectRatio="xMidYMid meet">

<g transform="translate(0.000000,252.000000) scale(0.100000,-0.100000)"
fill="#000000" stroke="none">
<path d="M2874 2471 c-34 -21 -58 -73 -124 -273 -35 -110 -39 -112 -120 -83
-74 26 -74 26 -108 -92 -43 -150 -55 -221 -50 -300 3 -70 27 -128 119 -295 39
-71 47 -136 25 -211 -9 -30 -16 -58 -16 -61 0 -3 18 -13 40 -22 29 -12 40 -22
40 -38 0 -25 -82 -181 -144 -274 -199 -299 -532 -512 -936 -598 -118 -25 -340
-26 -430 -1 -264 72 -427 274 -389 481 38 210 227 360 412 327 166 -29 277
-140 308 -306 18 -100 -6 -181 -83 -275 -25 -31 -64 -69 -87 -85 -52 -35 -44
-42 66 -53 86 -10 135 -3 163 23 30 27 88 148 105 216 42 181 -14 370 -150
505 -94 93 -169 130 -290 145 -138 17 -203 8 -301 -40 -196 -98 -301 -254
-311 -466 -9 -178 38 -307 157 -426 150 -150 440 -230 728 -201 522 53 978
357 1231 819 93 170 91 168 134 171 31 3 38 8 43 30 12 48 52 119 83 144 16
14 65 40 108 58 198 82 241 120 317 275 48 97 100 241 92 254 -3 4 -33 16 -67
26 -33 10 -63 25 -66 32 -3 7 18 88 47 180 29 92 53 178 53 191 0 37 -53 84
-95 84 -74 0 -96 -32 -168 -246 -24 -70 -50 -130 -58 -133 -15 -6 -59 5 -168
44 l-71 25 53 166 c30 92 54 181 54 197 0 38 -22 70 -60 90 -38 19 -49 19 -86
-4z"/>
<path d="M3614 2302 c-14 -9 -25 -160 -12 -168 5 -3 84 -17 176 -30 92 -14
223 -38 292 -55 124 -29 358 -104 373 -118 4 -5 -24 -42 -63 -84 l-72 -77
-336 -2 -337 -3 -28 -83 c-16 -46 -26 -86 -24 -88 8 -8 722 -8 766 0 38 7 60
24 171 133 l128 124 154 -85 154 -85 250 -35 c331 -48 308 -41 312 -104 l3
-52 -231 0 c-161 0 -231 -3 -228 -11 2 -6 46 -46 98 -90 l95 -79 133 0 132 0
0 -180 c0 -280 -13 -312 -155 -366 -42 -16 -81 -36 -85 -44 -5 -9 -11 -52 -15
-98 -7 -80 -7 -82 14 -82 34 0 231 87 284 125 26 20 61 54 77 77 58 79 60 101
60 555 l0 414 -23 23 c-26 26 -89 39 -392 82 -252 35 -251 35 -435 128 -371
188 -669 287 -1032 341 -185 28 -188 28 -204 17z"/>
<path d="M2305 2156 c-202 -69 -264 -96 -635 -288 -180 -93 -187 -96 -270
-102 -364 -30 -710 -115 -960 -237 -152 -75 -232 -147 -271 -244 -23 -59 -23
-65 -24 -405 l0 -344 34 -23 c33 -22 43 -23 170 -21 129 3 136 4 134 23 -1 11
-5 50 -8 87 l-7 68 -74 0 -74 0 0 164 0 164 116 4 c110 3 117 5 136 28 10 14
41 51 69 82 27 31 49 59 49 62 0 3 -83 6 -185 6 l-186 0 16 30 c42 82 121 139
280 202 123 49 236 84 390 119 166 38 356 48 928 49 l417 0 -1 23 c0 12 -6 54
-12 92 l-12 70 -224 5 -223 5 134 64 c73 35 180 82 238 103 58 22 110 45 116
51 10 10 64 172 64 191 0 11 -25 6 -125 -28z"/>
<path d="M8375 1941 c-95 -43 -137 -155 -104 -276 24 -87 90 -135 184 -134 70
1 99 11 103 35 3 20 -1 21 -75 16 -69 -4 -81 -2 -106 18 -42 33 -59 76 -59
145 0 69 17 112 59 145 25 20 36 22 106 17 42 -3 77 -4 77 -2 0 2 3 10 6 18 4
11 -5 19 -33 26 -56 16 -113 13 -158 -8z"/>
<path d="M9912 1934 c-83 -41 -120 -129 -101 -242 21 -129 139 -190 295 -151
l44 11 0 104 0 104 -70 0 c-68 0 -70 -1 -70 -25 0 -23 4 -25 45 -25 l46 0 -3
-62 -3 -63 -70 -3 c-83 -3 -128 19 -151 73 -18 43 -18 126 0 168 24 56 59 80
126 85 32 2 73 0 89 -6 26 -9 32 -8 41 8 14 27 14 28 -27 39 -66 19 -134 13
-191 -15z"/>
<path d="M11000 1947 c-19 -6 -51 -28 -71 -48 -89 -89 -72 -278 31 -342 28
-18 50 -22 115 -22 44 0 92 3 108 8 l27 7 0 105 0 105 -71 0 c-67 0 -70 -1
-67 -22 2 -19 10 -24 46 -26 l42 -3 0 -65 0 -64 -67 0 c-79 0 -109 13 -139 57
-51 75 -32 205 35 250 37 25 127 32 176 13 22 -8 27 -7 34 13 8 19 4 23 -28
34 -45 14 -125 14 -171 0z"/>
<path d="M6080 1746 l0 -206 83 0 c101 0 148 12 192 51 47 42 69 104 62 179
-6 74 -33 118 -89 150 -36 20 -60 25 -145 28 l-103 4 0 -206z m184 124 c58
-22 83 -119 51 -196 -16 -40 -68 -67 -119 -62 l-31 3 -3 119 c-1 66 0 126 2
133 6 15 64 17 100 3z"/>
<path d="M6510 1745 l0 -205 45 0 45 0 0 90 0 90 80 0 80 0 0 -90 0 -90 45 0
45 0 0 205 0 205 -45 0 -45 0 0 -80 0 -80 -80 0 -80 0 0 80 0 80 -45 0 -45 0
0 -205z"/>
<path d="M6920 1915 l0 -35 55 0 55 0 0 -170 0 -170 45 0 45 0 0 170 0 170 55
0 55 0 0 35 0 35 -155 0 -155 0 0 -35z"/>
<path d="M7460 1745 l0 -205 116 0 c114 0 115 0 112 23 -3 21 -8 22 -90 25
l-88 3 0 69 0 70 80 0 c79 0 80 0 80 25 0 25 -1 25 -80 25 l-80 0 0 60 0 59
88 3 c82 3 87 4 90 26 3 22 2 22 -112 22 l-116 0 0 -205z"/>
<path d="M7730 1941 c0 -6 27 -85 61 -178 34 -92 66 -180 71 -195 7 -21 17
-28 36 -28 26 0 30 9 97 196 39 108 72 200 73 205 2 5 -9 9 -25 9 -27 0 -29
-4 -87 -171 l-59 -172 -23 69 c-82 243 -95 274 -120 274 -13 0 -24 -4 -24 -9z"/>
<path d="M8650 1745 l0 -205 25 0 c25 0 25 0 25 95 l0 95 110 0 110 0 0 -95
c0 -95 0 -95 25 -95 l25 0 0 205 0 205 -25 0 c-25 0 -25 -1 -25 -85 l0 -85
-110 0 -110 0 0 85 c0 84 0 85 -25 85 l-25 0 0 -205z"/>
<path d="M9181 1928 c-10 -26 -140 -356 -148 -376 -4 -10 2 -13 22 -10 23 2
31 12 49 58 l22 55 86 3 85 3 23 -61 c20 -54 25 -60 50 -60 l28 0 -60 153
c-33 83 -69 176 -80 205 -17 42 -25 52 -45 52 -15 0 -27 -8 -32 -22z m36 -216
c-33 -2 -61 -1 -63 1 -2 2 11 43 28 91 l31 88 32 -89 31 -88 -59 -3z"/>
<path d="M9460 1745 l0 -205 25 0 c25 0 25 1 25 86 l0 85 42 -3 c42 -3 44 -5
93 -85 43 -71 54 -83 78 -83 15 0 27 2 27 5 0 2 -25 43 -55 89 l-55 86 30 15
c38 20 50 43 50 97 0 85 -51 118 -180 118 l-80 0 0 -205z m190 135 c28 -28 26
-75 -5 -105 -20 -21 -34 -25 -80 -25 l-55 0 0 75 0 75 60 0 c47 0 64 -4 80
-20z"/>
<path d="M10220 1935 c0 -8 11 -17 25 -21 l25 -6 0 -163 0 -163 -25 -6 c-14
-4 -25 -13 -25 -21 0 -12 15 -15 75 -15 57 0 75 3 75 14 0 8 -11 17 -25 20
l-25 6 0 165 0 165 25 6 c14 3 25 12 25 20 0 11 -18 14 -75 14 -60 0 -75 -3
-75 -15z"/>
<path d="M10450 1745 c0 -198 1 -205 20 -205 19 0 20 7 20 167 0 140 2 165 13
153 8 -8 58 -84 112 -167 89 -137 102 -153 127 -153 l28 0 0 205 c0 198 -1
205 -20 205 -19 0 -20 -7 -20 -167 0 -140 -2 -165 -13 -153 -8 8 -58 84 -112
168 -89 137 -101 152 -127 152 l-28 0 0 -205z"/>
<path d="M4504 1176 c-379 -86 -534 -525 -296 -839 48 -63 167 -142 256 -169
58 -17 86 -20 181 -16 102 5 118 8 181 39 46 22 93 58 140 104 184 181 216
429 84 649 -41 68 -124 148 -189 180 -109 55 -251 76 -357 52z m250 -180 c77
-35 140 -97 178 -174 30 -61 33 -74 33 -162 0 -89 -2 -99 -34 -158 -38 -71
-99 -129 -169 -164 -37 -18 -68 -24 -144 -26 -87 -3 -103 -1 -153 22 -64 29
-153 113 -184 174 -85 167 -11 384 161 473 102 53 218 59 312 15z"/>
<path d="M6670 1178 c-95 -27 -147 -118 -121 -214 15 -54 59 -97 151 -145 90
-46 113 -68 113 -106 0 -64 -85 -81 -205 -39 l-68 23 0 -63 0 -62 65 -17 c129
-35 260 -4 312 74 18 26 23 48 23 94 0 95 -32 132 -177 206 -60 30 -93 62 -93
89 0 7 11 24 25 37 30 30 77 32 152 6 l52 -18 21 48 c11 26 20 50 20 53 0 3
-30 14 -66 26 -70 21 -147 25 -204 8z"/>
<path d="M9139 1176 c-48 -13 -89 -38 -126 -78 -79 -84 -95 -296 -32 -419 76
-150 327 -188 461 -69 71 62 92 121 92 255 0 132 -21 191 -89 254 -71 65 -193
88 -306 57z m189 -123 c53 -40 67 -78 67 -188 0 -82 -4 -106 -20 -134 -33 -56
-68 -76 -135 -76 -98 0 -148 57 -157 180 -10 114 25 201 91 231 41 19 120 12
154 -13z"/>
<path d="M10480 1178 c-95 -27 -147 -118 -121 -214 15 -54 59 -97 151 -145 90
-46 113 -68 113 -106 0 -64 -85 -81 -205 -39 l-68 23 0 -63 0 -62 65 -17 c129
-35 260 -4 312 74 18 26 23 48 23 94 0 95 -32 132 -177 206 -60 30 -93 62 -93
89 0 7 11 24 25 37 30 30 77 32 152 6 l52 -18 21 48 c11 26 20 50 20 53 0 3
-30 14 -66 26 -70 21 -147 25 -204 8z"/>
<path d="M7000 1125 l0 -55 85 0 85 0 0 -260 0 -260 65 0 65 0 0 260 0 260 85
0 85 0 0 55 0 55 -235 0 -235 0 0 -55z"/>
<path d="M7625 1018 c-32 -90 -82 -232 -111 -316 l-54 -153 72 3 72 3 22 70
22 70 115 3 115 3 23 -76 22 -75 73 0 72 0 -33 93 c-18 50 -69 192 -112 315
l-78 222 -81 0 -82 0 -57 -162z m184 -86 l39 -122 -84 0 -83 0 14 43 c8 23 26
83 41 132 15 50 29 85 31 80 2 -6 21 -65 42 -133z"/>
<path d="M8060 1125 l0 -55 85 0 85 0 0 -260 0 -260 65 0 65 0 0 260 0 260 85
0 85 0 0 55 0 55 -235 0 -235 0 0 -55z"/>
<path d="M8580 1142 c0 -34 4 -40 35 -55 l35 -17 0 -205 0 -205 -35 -17 c-31
-15 -35 -21 -35 -55 l0 -38 140 0 140 0 0 38 c0 34 -4 40 -35 55 l-35 17 0
205 0 205 35 17 c31 15 35 21 35 55 l0 38 -140 0 -140 0 0 -38z"/>
<path d="M9670 865 l0 -315 61 0 62 0 -5 236 c-3 172 -2 233 6 222 6 -9 67
-115 136 -236 l125 -221 88 -1 87 0 0 315 0 315 -60 0 -60 0 -2 -232 -3 -232
-134 232 -134 232 -83 0 -84 0 0 -315z"/>
<path d="M1819 668 c-6 -14 -25 -165 -22 -170 2 -5 39 -8 83 -8 66 0 86 4 132
28 66 35 198 130 198 143 0 8 -388 14 -391 7z"/>
<path d="M2687 580 l-67 -90 681 0 c643 0 680 1 675 18 -5 17 -26 140 -26 155
0 4 -269 7 -598 7 l-597 0 -68 -90z"/>
</g>
</svg>
